<svg xmlns="http://www.w3.org/2000/svg" width="81.535" height="107.014" viewBox="0 0 81.535 107.014">
  <path id="Icon_ionic-md-lock" data-name="Icon ionic-md-lock" d="M78.093,38.906H73V28.714a25.48,25.48,0,1,0-50.959,0V38.906h-5.1A10.221,10.221,0,0,0,6.75,49.1v50.959a10.221,10.221,0,0,0,10.192,10.192H78.093a10.221,10.221,0,0,0,10.192-10.192V49.1A10.221,10.221,0,0,0,78.093,38.906ZM47.517,85.278A10.192,10.192,0,1,1,57.709,75.087,10.221,10.221,0,0,1,47.517,85.278Zm15.8-46.373h-31.6V28.714a15.8,15.8,0,1,1,31.6,0Z" transform="translate(-6.75 -3.234)" fill="#c2c2c2"/>
</svg>
